<svg xmlns="http://www.w3.org/2000/svg" fill="none" viewBox="0 0 49 64"><path fill="url(#java_svg__a)" d="M31.002 0s6.649 6.652-6.308 16.88c-8.035 6.345-5.06 10.58-2.205 14.648.837 1.192 1.665 2.37 2.201 3.583-6.066-5.472-10.515-10.29-7.53-14.774 1.458-2.189 3.775-4.003 6.119-5.839C27.98 10.818 32.79 7.05 31.002 0Zm-3.429 30.6c3.09 3.556-.81 6.753-.81 6.753s7.839-4.045 4.24-9.114l-.427-.595v-.001c-3.127-4.34-4.915-6.823 8.443-14.57 0 0-21.909 5.47-11.446 17.528ZM16.11 44.947c-4.189-.433-1.447-2.463-1.447-2.463-10.837 3.597 6.033 7.679 21.18 3.249-1.61-.568-2.632-1.606-2.632-1.606-7.406 1.426-11.683 1.38-17.1.82Zm1.826 6.45c-4.186-.48-1.741-1.903-1.741-1.903-9.84 2.75 5.987 8.429 18.516 3.06-2.052-.797-3.524-1.718-3.524-1.718-5.587 1.056-8.18 1.14-13.25.56ZM42.15 57.32c3.803-1.154 1.993-2.645 1.993-2.645 6.625 2.99-14.394 8.994-39.937 4.854-9.367-1.52 4.507-6.82 7.046-5.032 0 0-.802-.056-2.206.248-1.347.291-5.628 1.669-3.346 2.663 6.351 2.762 29.22 2.102 36.45-.088ZM17.37 35.224s-11.63 2.764-4.118 3.768c3.173.425 9.495.327 15.387-.168 4.814-.403 9.646-1.268 9.646-1.268s-1.696.728-2.924 1.566C23.546 42.23.729 40.782 7.299 37.606c5.553-2.687 10.07-2.382 10.07-2.382Zm23.451.239c3.875-.808 9.428 5.188-2.58 11.426-.055.148-.24.315-.24.315 16.034-4.215 10.14-14.858 2.473-12.163-.673.238-1.026.79-1.026.79s.425-.17 1.373-.368Zm7.375 22.473c-.419 5.453-18.12 6.6-29.643 5.863-7.574-.488-9.048-1.708-9.048-1.708 7.195 1.188 19.33 1.404 29.166-.448 8.72-1.64 9.525-3.707 9.525-3.707Z"/><g clip-path="url(#java_svg__b)" filter="url(#java_svg__c)"><path fill="url(#java_svg__a)" d="M0 0h49v64H0V0"/></g><defs><linearGradient id="java_svg__a" x1="24.596" x2="24.596" y1="0" y2="63.999" gradientUnits="userSpaceOnUse"><stop stop-color="azure"/><stop offset=".453" stop-color="#C8E0FF"/><stop offset="1" stop-color="#7880AA"/></linearGradient><clipPath id="java_svg__b"><path fill-rule="evenodd" d="M31.002 0s6.649 6.652-6.308 16.88c-8.035 6.345-5.06 10.58-2.205 14.648.837 1.192 1.665 2.37 2.201 3.583-6.066-5.472-10.515-10.29-7.53-14.774 1.458-2.189 3.775-4.003 6.119-5.839C27.98 10.818 32.79 7.05 31.002 0Zm-3.429 30.6c3.09 3.556-.81 6.753-.81 6.753s7.839-4.045 4.24-9.114l-.427-.595v-.001c-3.127-4.34-4.915-6.823 8.443-14.57 0 0-21.909 5.47-11.446 17.528ZM16.11 44.947c-4.189-.433-1.447-2.463-1.447-2.463-10.837 3.597 6.033 7.679 21.18 3.249-1.61-.568-2.632-1.606-2.632-1.606-7.406 1.426-11.683 1.38-17.1.82Zm1.826 6.45c-4.186-.48-1.741-1.903-1.741-1.903-9.84 2.75 5.987 8.429 18.516 3.06-2.052-.797-3.524-1.718-3.524-1.718-5.587 1.056-8.18 1.14-13.25.56ZM42.15 57.32c3.803-1.154 1.993-2.645 1.993-2.645 6.625 2.99-14.394 8.994-39.937 4.854-9.367-1.52 4.507-6.82 7.046-5.032 0 0-.802-.056-2.206.248-1.347.291-5.628 1.669-3.346 2.663 6.351 2.762 29.22 2.102 36.45-.088ZM17.37 35.224s-11.63 2.764-4.118 3.768c3.173.425 9.495.327 15.387-.168 4.814-.403 9.646-1.268 9.646-1.268s-1.696.728-2.924 1.566C23.546 42.23.729 40.782 7.299 37.606c5.553-2.687 10.07-2.382 10.07-2.382Zm23.451.239c3.875-.808 9.428 5.188-2.58 11.426-.055.148-.24.315-.24.315 16.034-4.215 10.14-14.858 2.473-12.163-.673.238-1.026.79-1.026.79s.425-.17 1.373-.368Zm7.375 22.473c-.419 5.453-18.12 6.6-29.643 5.863-7.574-.488-9.048-1.708-9.048-1.708 7.195 1.188 19.33 1.404 29.166-.448 8.72-1.64 9.525-3.707 9.525-3.707Z" clip-rule="evenodd"/></clipPath><filter id="java_svg__c"><feTurbulence baseFrequency="1" type="fractalNoise"/><feColorMatrix in="colorNoise" values=".33 .33 .33 0 0 .33 .33 .33 0 0 .33 .33 .33 0 0 0 0 0 1 0"/><feComposite in2="SourceGraphic" operator="in" result="monoNoise"/><feBlend in="SourceGraphic" in2="monoNoise" mode="multiply"/></filter></defs></svg>